<svg xmlns="http://www.w3.org/2000/svg" width="80.3" height="158.6" viewBox="0 0 80.3 158.6"><path fill="#b4fff4" d="M73.2 117.5L61.5 98.2c2.1-7.5 3.8-15.9 3.8-24 0-1.1 0-2.2-.1-3.2-1.2-21.6-9.5-29.3-15.7-35.5-3-3-5.2-5.5-6.8-9.1 0-.1-.1-.1-.1-.2a4.7 4.7 0 0 0 2.6-.9 3.5 3.5 0 0 0 1.8-3.2l-.4-.8c-.5-.5-2-.8-4.4-.9a15.1 15.1 0 0 1 .1-4.2c.1-.7.1-.7 1.1-.9h.2a1.5 1.5 0 0 0 1.3-.8 2.9 2.9 0 0 0-.4-2.4h-.1l-.2-.4c-1.7-4.1-2.5-7-2.5-8.6s-.5-2.7-.9-3h-1c-.3.2-.9.6-.9 2.9s-.5 3.4-2.6 8.7v.4a3.5 3.5 0 0 0-.6 1.8 1.3 1.3 0 0 0 .1.6 1.6 1.6 0 0 0 1.3.8h.2c1.1.2 1.1.2 1.2.9s.2 1.8.2 2.5a9.9 9.9 0 0 1-.2 1.7c-2.4.1-3.9.4-4.4.9l-.3.8a3.6 3.6 0 0 0 1.7 3.2 6.7 6.7 0 0 0 2.6.9c0 .1 0 .1-.1.2-1.5 3.6-4.1 6.2-7.1 9.2C24.5 41.8 16.2 49.5 15 71c0 1-.1 2.1-.1 3.2a87.3 87.3 0 0 0 3.9 24L7.1 117.5 0 158.6h8l7.5-26.1L28 121.9h.5l1.4.5c.2 1.3.4 2.7.6 3.5s.4 2.2 6.3 2.6v29.9h6.6v-29.6c6.2-.4 6.5-2 6.6-2.7s.4-2.2.7-3.5l1.3-.5h.3l12.5 10.5 7.4 26.1h8.1z"/></svg>