<svg xmlns="http://www.w3.org/2000/svg" width="100.3" height="198.2" viewBox="0 0 100.3 198.2"><path fill="#b4fff4" d="M91.4 146.8l-14.6-24.1c2.7-9.3 4.9-19.8 4.9-30 0-1.3-.1-2.7-.2-4C80 61.8 69.6 52.1 61.9 44.3c-3.7-3.6-6.5-6.8-8.5-11.3a.3.3 0 0 1-.1-.2 9.9 9.9 0 0 0 3.3-1.1 4.7 4.7 0 0 0 2.1-4.1l-.4-1c-.6-.6-2.5-1-5.5-1.1a15.3 15.3 0 0 1 .1-5.2c.1-1 .1-1 1.4-1.1h.3a2.3 2.3 0 0 0 1.6-1.1c.5-1-.2-2.2-.6-2.9l-.2-.2v-.5c-2.1-5.2-3.2-8.8-3.2-10.8S51.5.4 51 .2a1.1 1.1 0 0 0-1.3 0c-.3.1-1.1.6-1.1 3.5 0 1.3-.6 4.3-3.2 10.9l-.2.3v.3a4.4 4.4 0 0 0-.8 2.1 1.9 1.9 0 0 0 .2.8 2.3 2.3 0 0 0 1.6 1.1h.3c1.3.1 1.3.1 1.4 1.1a18.9 18.9 0 0 1 .3 3.1 14.9 14.9 0 0 1-.2 2.1c-3 .1-4.9.5-5.5 1.1l-.4 1a4.7 4.7 0 0 0 2.1 4.1 9.9 9.9 0 0 0 3.3 1.1.3.3 0 0 0-.1.2c-1.9 4.6-5.2 7.8-8.9 11.5-7.7 7.7-18.1 17.4-19.6 44.2-.1 1.3-.1 2.7-.1 4 0 10.2 2.1 20.7 4.8 30L8.9 146.8 0 198.2h10l9.4-32.6 15.7-13.2.5.3 1.8.5c.2 1.7.5 3.4.7 4.4s.6 2.8 7.9 3.3v37.3h8.3V161c7.7-.5 8.1-2.5 8.2-3.3l.8-4.5 1.7-.5.4-.2L81 165.6l9.3 32.6h10z"/></svg>